<?xml version="1.0" standalone="no"?>
<!DOCTYPE svg PUBLIC "-//W3C//DTD SVG 20010904//EN"
 "http://www.w3.org/TR/2001/REC-SVG-20010904/DTD/svg10.dtd">
<svg version="1.0" xmlns="http://www.w3.org/2000/svg"
 width="1561.000000pt" height="160.000000pt" viewBox="0 0 1561.000000 160.000000"
 preserveAspectRatio="xMidYMid meet">

<g transform="translate(0.000000,160.000000) scale(0.100000,-0.100000)"
fill="#000000" stroke="none">
<path d="M8790 1439 c-35 -6 -35 -6 -5 -8 27 -1 28 -3 11 -13 -13 -7 -84 -9
-228 -6 -140 4 -210 2 -215 -5 -4 -7 -70 -7 -212 -1 -243 10 -362 9 -370 -5
-4 -6 -24 -5 -54 2 -36 8 -69 8 -125 0 -56 -8 -123 -8 -242 -1 -124 8 -202 8
-313 -1 -109 -9 -151 -10 -161 -1 -9 6 -63 11 -140 12 -106 1 -129 -2 -139
-16 -10 -14 -16 -14 -37 -3 -20 10 -147 13 -600 14 -430 1 -586 4 -620 13 -54
16 -206 16 -225 0 -16 -13 -257 -15 -282 -1 -11 5 -36 6 -63 1 -25 -5 -94 -12
-155 -15 -88 -6 -116 -4 -138 8 -29 15 -72 9 -150 -22 -35 -14 -261 -14 -626
-1 -180 7 -278 7 -286 0 -6 -5 -139 -14 -296 -20 -156 -5 -324 -12 -374 -15
-49 -3 -153 0 -230 7 -77 6 -302 12 -500 13 -198 2 -432 8 -520 14 -100 8
-259 10 -425 7 -168 -4 -258 -3 -245 3 14 7 -16 10 -95 10 -63 0 -209 6 -325
12 -116 7 -253 9 -308 4 -93 -7 -97 -8 -97 -30 0 -21 6 -24 57 -31 50 -6 54
-8 33 -16 -14 -5 -40 -7 -58 -4 l-32 5 0 -615 0 -614 7805 0 7805 0 0 631 0
631 -22 -8 c-25 -9 -514 -12 -663 -4 -49 2 -245 -2 -435 -10 -371 -16 -707
-17 -915 -4 -71 5 -184 7 -250 4 -66 -3 -125 -2 -131 2 -6 4 -86 6 -179 3
-112 -2 -174 0 -182 7 -9 7 -126 9 -379 6 -283 -4 -364 -2 -360 7 7 20 -498
28 -1819 27 -437 0 -738 -5 -820 -14 -44 -5 -75 0 -75 12 0 5 8 10 18 12 9 2
-59 3 -153 3 -93 0 -205 2 -248 5 -62 4 -80 2 -88 -10 -8 -13 -11 -13 -19 2
-6 10 -17 15 -25 11 -9 -3 -21 -1 -28 4 -6 5 -28 6 -47 2z m-7782 -75 c-4 -3
-52 -6 -107 -7 -55 -1 -93 1 -83 5 21 8 198 10 190 2z m-328 -12 c0 -12 -193
-14 -210 -2 -10 7 19 10 98 10 61 0 112 -4 112 -8z m10628 -7 c3 -3 19 -5 35
-5 17 0 27 -3 24 -6 -8 -9 -258 -6 -317 3 -42 6 -43 7 -15 13 35 6 266 2 273
-5z m952 5 c10 -7 -21 -9 -95 -8 -86 1 -99 3 -60 8 78 11 139 11 155 0z
m-11917 -7 c-13 -2 -33 -2 -45 0 -13 2 -3 4 22 4 25 0 35 -2 23 -4z m11587 -3
c10 -7 -21 -9 -95 -8 -95 1 -102 2 -50 8 94 10 129 10 145 0z m-9157 -7 c-7
-2 -19 -2 -25 0 -7 3 -2 5 12 5 14 0 19 -2 13 -5z m4844 1 c-3 -3 -12 -4 -19
-1 -8 3 -5 6 6 6 11 1 17 -2 13 -5z m3986 -1 c-7 -2 -21 -2 -30 0 -10 3 -4 5
12 5 17 0 24 -2 18 -5z m2430 -10 c-7 -2 -19 -2 -25 0 -7 3 -2 5 12 5 14 0 19
-2 13 -5z m-7095 -143 c-10 -6 -25 -7 -40 -1 -20 9 -18 10 17 10 31 0 36 -2
23 -9z"/>
</g>
</svg>
