<?xml version="1.0" standalone="no"?>
<!DOCTYPE svg PUBLIC "-//W3C//DTD SVG 20010904//EN"
 "http://www.w3.org/TR/2001/REC-SVG-20010904/DTD/svg10.dtd">
<svg version="1.0" xmlns="http://www.w3.org/2000/svg"
 width="900.000000pt" height="244.000000pt" viewBox="0 0 900.000000 244.000000"
 preserveAspectRatio="xMidYMid meet">

<g transform="translate(0.000000,244.000000) scale(0.100000,-0.100000)"
fill="#000000" stroke="none">
<path d="M5250 1345 l0 -745 675 0 675 0 0 745 0 745 -675 0 -675 0 0 -745z
m1144 598 c4 -9 11 -75 16 -147 5 -72 12 -145 15 -163 3 -17 2 -34 -3 -37 -12
-7 -33 18 -68 83 -45 84 -104 144 -176 177 -57 26 -73 29 -163 29 -137 -1
-196 -24 -286 -114 -81 -82 -122 -172 -140 -309 -28 -207 33 -403 166 -538 95
-96 149 -117 290 -112 78 3 113 9 160 28 l60 25 3 90 c2 50 -1 150 -7 223 -11
154 -16 164 -92 182 -65 16 -69 26 -12 34 102 14 403 4 403 -13 0 -4 -19 -11
-42 -17 -36 -7 -46 -15 -62 -48 -16 -34 -20 -69 -24 -257 l-5 -219 -55 -25
c-108 -49 -206 -69 -347 -69 -209 0 -332 44 -460 165 -195 186 -236 442 -111
694 94 188 214 289 393 331 97 23 251 14 362 -20 113 -35 127 -34 148 9 19 39
28 43 37 18z"/>
<path d="M2733 1968 c-26 -13 -52 -63 -46 -88 7 -26 43 -57 75 -65 22 -6 33
-1 58 23 45 45 40 101 -11 127 -32 17 -46 18 -76 3z"/>
<path d="M649 1940 c-62 -11 -115 -40 -168 -92 -61 -59 -84 -116 -84 -203 0
-149 41 -191 403 -413 121 -74 187 -131 196 -169 4 -13 4 -51 2 -83 -4 -49
-10 -66 -34 -91 -51 -54 -99 -72 -189 -73 -171 -1 -270 73 -326 243 -27 82
-29 86 -40 70 -10 -16 -12 -372 -2 -382 3 -4 19 7 33 25 l27 33 64 -12 c35 -7
89 -20 119 -28 38 -11 86 -15 155 -13 90 3 107 6 167 36 139 68 208 207 173
345 -30 116 -87 168 -353 318 -230 130 -262 161 -262 254 0 107 83 175 212
175 81 0 148 -31 206 -94 46 -50 85 -126 96 -188 12 -67 23 -41 28 65 5 116
-1 287 -11 287 -3 0 -14 -14 -23 -30 -21 -36 -32 -37 -134 -6 -92 27 -190 37
-255 26z"/>
<path d="M1494 1761 c-51 -94 -111 -168 -171 -213 l-58 -43 62 -3 62 -3 3 -87
c2 -48 5 -179 6 -291 4 -270 13 -310 84 -347 78 -40 196 15 241 113 16 36 1
38 -40 4 -46 -38 -90 -41 -121 -8 -22 23 -22 29 -22 320 l0 297 90 0 c89 0 90
0 90 25 0 25 -1 25 -90 25 l-90 0 -1 93 c0 50 -4 110 -8 132 l-7 40 -30 -54z"/>
<path d="M7588 1738 c-36 -69 -135 -181 -180 -204 -43 -22 -34 -33 30 -36 l57
-3 6 -305 c6 -345 8 -356 81 -403 23 -15 56 -27 73 -27 66 1 151 62 176 128
14 37 4 38 -36 3 -45 -39 -91 -42 -124 -7 -23 24 -23 27 -25 318 l-1 293 88 3
c85 3 87 3 87 27 0 24 -2 24 -87 27 l-88 3 -3 123 c-1 67 -7 122 -12 122 -5 0
-24 -28 -42 -62z"/>
<path d="M2750 1551 c-86 -32 -156 -66 -165 -81 -4 -6 9 -10 32 -10 68 0 67 1
73 -202 3 -101 3 -236 0 -301 -5 -110 -7 -120 -29 -138 -13 -10 -34 -19 -48
-19 -15 0 -23 -5 -20 -12 5 -16 357 -19 357 -3 1 6 -13 13 -31 16 -72 15 -77
46 -78 487 -1 160 -4 292 -8 292 -5 -1 -42 -14 -83 -29z"/>
<path d="M4405 1568 c-9 -24 -26 -27 -81 -17 -80 16 -184 13 -232 -6 -74 -30
-122 -108 -123 -201 -2 -92 41 -142 196 -229 123 -69 161 -98 186 -139 35 -57
16 -131 -41 -161 -63 -33 -176 -9 -228 47 -13 14 -41 59 -62 99 l-38 73 -7
-45 c-3 -24 -5 -84 -3 -133 l3 -88 85 -5 c188 -12 252 -9 296 14 53 28 120
104 128 144 27 138 -18 198 -240 322 -125 70 -174 120 -174 178 0 67 50 99
155 99 65 0 113 -43 161 -142 15 -32 31 -58 36 -58 11 0 10 232 -2 250 -8 12
-10 12 -15 -2z"/>
<path d="M2059 1556 c-145 -39 -249 -203 -249 -395 0 -218 107 -371 285 -409
89 -19 204 23 268 98 67 79 122 210 87 210 -5 0 -18 -17 -29 -37 -44 -87 -119
-135 -210 -135 -152 1 -256 119 -284 325 l-6 37 270 0 269 0 0 40 c0 64 -37
148 -89 200 -71 71 -195 98 -312 66z m130 -61 c44 -22 78 -70 90 -125 6 -28
11 -55 11 -61 0 -6 -67 -8 -177 -7 -174 3 -178 3 -181 25 -4 25 37 111 64 134
55 48 138 63 193 34z"/>
<path d="M3185 1546 c-76 -29 -154 -66 -160 -77 -3 -4 11 -11 32 -14 21 -4 44
-8 51 -11 29 -9 35 -61 35 -309 0 -313 -2 -322 -96 -337 -10 -2 -18 -7 -18
-13 1 -13 370 -14 374 0 1 5 -11 12 -28 15 -51 11 -74 28 -80 63 -3 17 -5 142
-3 276 l3 243 64 39 c97 59 158 63 206 15 31 -31 36 -80 38 -359 l2 -229 -28
-24 c-16 -14 -41 -24 -58 -24 -19 0 -29 -5 -29 -15 0 -13 25 -15 185 -13 114
2 185 7 186 13 0 6 -8 11 -18 13 -37 6 -72 24 -78 40 -4 10 -10 139 -15 287
-7 249 -9 275 -30 323 -27 62 -65 97 -123 113 -81 21 -154 -5 -249 -91 l-58
-52 0 54 c0 70 -9 98 -29 97 -9 0 -43 -10 -76 -23z"/>
<path d="M6863 1556 c-61 -15 -125 -55 -150 -93 -11 -17 -18 -46 -18 -82 0
-49 3 -57 26 -70 15 -8 36 -12 52 -7 27 6 39 33 52 118 9 59 42 90 101 95 90
9 142 -40 158 -148 10 -65 -13 -87 -147 -145 -135 -58 -219 -112 -251 -161
-85 -128 1 -306 147 -306 59 0 113 23 194 84 l52 39 10 -38 c17 -61 53 -87
118 -83 25 1 153 116 153 137 0 19 -3 18 -46 -11 -43 -30 -60 -31 -72 -7 -5 9
-13 132 -16 272 -4 140 -11 271 -17 291 -27 104 -181 155 -346 115z m222 -474
c0 -87 -4 -134 -13 -150 -16 -28 -125 -82 -164 -82 -37 0 -95 53 -109 99 -25
82 24 157 144 222 84 46 120 59 132 47 5 -5 10 -65 10 -136z"/>
<path d="M8163 1552 c-74 -26 -127 -66 -167 -125 -56 -83 -71 -144 -71 -282 0
-114 2 -123 32 -187 42 -90 99 -149 174 -183 53 -23 71 -27 133 -23 42 2 87
12 111 23 57 28 132 106 160 168 47 102 42 160 -6 80 -35 -60 -90 -112 -129
-123 -46 -13 -115 -13 -165 1 -57 16 -136 99 -164 175 -22 58 -46 163 -39 170
2 2 91 4 198 5 107 2 228 5 268 7 l72 4 0 34 c0 47 -32 125 -69 173 -68 86
-223 124 -338 83z m123 -53 c63 -30 96 -77 102 -145 l5 -54 -174 2 -174 3 -3
25 c-3 31 45 117 79 142 22 17 92 46 112 48 4 0 28 -10 53 -21z"/>
<path d="M4715 1358 c-34 -18 -45 -40 -45 -89 0 -58 23 -79 85 -79 45 0 77 25
88 68 17 72 -64 135 -128 100z"/>
<path d="M4732 920 c-18 -4 -36 -10 -39 -14 -3 -3 0 -30 7 -60 18 -77 9 -156
-24 -206 -27 -40 -27 -60 -1 -60 25 0 118 94 141 145 28 60 32 149 8 183 -16
23 -36 25 -92 12z"/>
<path d="M1714 502 l-1432 -2 -4 -35 -4 -35 4226 0 4226 0 -4 41 -4 41 -2787
-4 c-1532 -2 -3430 -4 -4217 -6z"/>
</g>
</svg>
